<?xml version="1.0" encoding="iso-8859-1"?>

<!-- Uploaded to: SVG Repo, www.svgrepo.com, Generator: SVG Repo Mixer Tools -->
<svg height="800px" width="800px" version="1.1" xmlns="http://www.w3.org/2000/svg" xmlns:xlink="http://www.w3.org/1999/xlink" 
	 viewBox="0 0 32.001 32.001" xml:space="preserve">
<g id="Layer_20">
	<path style="fill:#66CCFF;" d="M30.496,14.233L30.496,14.233l-3.608,3.608l-4.558-1.232l-1.184-4.339l3.283-3.283l4.996,1.362
		l0.526-1.93l-5.005-1.365l-1.323-4.85l-1.929,0.526l1.321,4.842l-3.282,3.282l-4.446-1.212l-1.17-4.289l3.693-3.694l-1.414-1.414
		l-3.693,3.693L7.706,2.576L7.18,4.506l5.004,1.365l1.17,4.291l-3.31,3.31l-4.268-1.153L4.394,7.289l-1.928,0.53l1.329,4.831
		l-3.701,3.701l1.414,1.414l3.566-3.567l4.617,1.248l1.159,4.215l-3.339,3.339l-4.916-1.329l-0.522,1.931l4.987,1.348l1.365,4.965
		l1.928-0.53h0l-1.38-5.019l3.225-3.226l4.394,1.188l1.228,4.503l-3.607,3.607l1.414,1.414l3.683-3.683l5.008,1.354l0.522-1.931
		l-5.117-1.383l-1.168-4.282l3.359-3.359l4.337,1.172l1.381,5.063l1.929-0.526l-1.347-4.938l3.693-3.693L30.496,14.233z
		 M17.228,20.429l-4.421-1.195l-1.229-4.468l3.191-3.192l4.444,1.212l1.212,4.444L17.228,20.429z"/>
	<path style="fill:#4E5F80;" d="M20.141,31.455c5.522-1.479,9.834-5.792,11.314-11.314c0.367-1.368,0.545-2.76,0.545-4.14
		c0-4.188-1.647-8.274-4.687-11.314C24.274,1.647,20.188,0,15.999,0c-1.38,0-2.772,0.179-4.14,0.546
		C6.338,2.025,2.025,6.338,0.545,11.859C0.179,13.227,0,14.619,0,15.999c0,4.188,1.647,8.274,4.687,11.314
		c3.04,3.04,7.126,4.687,11.314,4.687C17.382,32.001,18.773,31.822,20.141,31.455z M2,15.999c0-1.208,0.156-2.425,0.477-3.623
		c1.295-4.831,5.068-8.605,9.899-9.899C13.575,2.156,14.792,2,15.999,2c3.665,0,7.24,1.441,9.9,4.101
		c2.66,2.66,4.101,6.236,4.101,9.9c0,1.208-0.156,2.425-0.477,3.623c-1.295,4.831-5.068,8.605-9.9,9.899
		c-1.198,0.321-2.415,0.477-3.623,0.477c-3.665,0-7.24-1.441-9.9-4.101C3.441,23.24,2,19.664,2,15.999z"/>
</g>
<g id="Layer_1">
</g>
</svg>